<svg xmlns="http://www.w3.org/2000/svg" width="140" height="40" viewBox="0 0 104.88 30"><defs><clipPath id="a"><path d="M53.77 8H59v9h-5.23Zm0 0"/></clipPath><clipPath id="b"><path d="M58 6.77h6v11.613h-6Zm0 0"/></clipPath><clipPath id="c"><path d="M11.3 8.613h5.079v8.711H11.3Zm0 0"/></clipPath><clipPath id="d"><path d="M1.633 0H17v19H1.633Zm0 0"/></clipPath></defs><path fill="#fff" d="M64.773 16.71a.35.35 0 0 1-.25-.105.35.35 0 0 1 0-.496l3.618-3.617-3.618-3.617a.356.356 0 0 1 0-.5.356.356 0 0 1 .5 0l3.868 3.867a.35.35 0 0 1 .101.25.35.35 0 0 1-.101.25l-3.868 3.863a.35.35 0 0 1-.25.106m0 0"/><g clip-path="url(#a)"><path fill="#fff" d="M57.996 16.71a.35.35 0 0 1-.25-.105l-3.863-3.863a.36.36 0 0 1-.106-.25c0-.094.04-.183.106-.25l3.863-3.867a.356.356 0 0 1 .5 0 .356.356 0 0 1 0 .5l-3.617 3.617 3.617 3.617a.35.35 0 0 1 0 .496.35.35 0 0 1-.25.106m0 0"/></g><g clip-path="url(#b)"><path fill="#fff" d="M59.285 18.168a.4.4 0 0 1-.129-.023.36.36 0 0 1-.199-.461l4.2-10.645a.36.36 0 0 1 .46-.2c.18.071.27.278.2.458l-4.204 10.648a.355.355 0 0 1-.328.223m0 0"/></g><g clip-path="url(#c)"><path fill="#f94616" d="M13.195 14.57c.106.278.008.524-.11.766-.108.223-.222.437-.308.672a1.3 1.3 0 0 0-.082.695c.04.215.149.399.348.512q.007.006.02.012c-.024.011-.032 0-.043-.004a1.8 1.8 0 0 1-.473-.243c-.024-.015-.043-.03-.067-.046a1.9 1.9 0 0 1-.503-.438c-.168-.207-.313-.426-.38-.691a2.45 2.45 0 0 1-.023-1.04c.067-.343.223-.644.41-.933.145-.219.301-.434.414-.672.122-.25.16-.512.098-.789a1 1 0 0 0-.07-.215c-.024-.039-.016-.054.031-.054.059 0 .11.027.156.058.242.168.352.414.407.692.035.175.035.355.015.53-.008.087-.015.173-.008.259a.3.3 0 0 0 .04.12c.035.063.093.079.148.032a.28.28 0 0 0 .105-.191c.059-.34-.023-.665-.093-.989a3.4 3.4 0 0 1-.09-.765c-.004-.352.129-.657.316-.946q.087-.124.18-.242.168-.221.312-.46a1.1 1.1 0 0 0 .157-.716 1.2 1.2 0 0 0-.141-.449.65.65 0 0 0-.375-.3c-.035-.012-.086-.016-.078-.063.012-.047.062-.031.094-.031a.95.95 0 0 1 .527.242q.118.103.207.23c.133.184.246.375.309.594.05.191.062.387.046.586-.023.375-.132.73-.234 1.09a1.5 1.5 0 0 0-.074.375.55.55 0 0 0 .05.285c.055.098.145.137.25.137.102 0 .153-.067.192-.145.066-.144.129-.289.121-.453a1.4 1.4 0 0 0-.05-.285c-.005-.012-.016-.024-.005-.035q.018-.01.036.004c.09.035.148.105.195.183.187.305.234.64.23.989-.011.511-.136 1.003-.293 1.484-.07.21-.144.422-.195.64a.6.6 0 0 0 .004.305.22.22 0 0 0 .129.133.09.09 0 0 0 .09-.004.27.27 0 0 0 .12-.117 1.6 1.6 0 0 0 .157-.484c.047-.235.078-.473.074-.715l-.008-.36c0-.02-.007-.047.016-.058.027-.008.047.008.063.027.066.074.113.16.144.25q.11.329.113.676c.004.242-.035.48-.105.71a1.3 1.3 0 0 0-.055.368c0 .055.012.102.051.14.063.063.14.063.2-.003.062-.075.081-.164.105-.254a.8.8 0 0 0-.051-.492c-.004-.012-.012-.024-.012-.036q-.005-.017.008-.035c.016-.011.027 0 .035.004a.3.3 0 0 1 .098.098c.055.082.117.16.16.25.11.219.129.453.094.691-.074.457-.301.82-.672 1.098a3.8 3.8 0 0 1-.942.516q-.054.016-.113.03c-.012 0-.031.012-.035-.007-.008-.02.012-.016.023-.023.176-.098.344-.207.497-.336.21-.18.363-.399.414-.676a.7.7 0 0 0-.036-.371 1.5 1.5 0 0 0-.195-.399q-.004-.007-.008-.008c-.02-.02-.03-.054-.062-.039-.016.008.004.04.008.063.02.07.043.137.05.207.02.125-.043.21-.14.273-.074.043-.156.032-.235-.02a.85.85 0 0 1-.25-.25 2.8 2.8 0 0 1-.43-.898 2.4 2.4 0 0 1-.007-1.187q.042-.169.098-.332l.011-.035c.004-.016 0-.035-.015-.043q-.024-.017-.047.008-.025.024-.051.054a2.2 2.2 0 0 0-.395.86 1.3 1.3 0 0 0-.003.386q.015.133.043.266c.015.09.043.18.066.27a.63.63 0 0 1-.008.351c-.023.078-.058.145-.152.156-.094.016-.164-.03-.211-.105a.48.48 0 0 1-.078-.356.53.53 0 0 0-.274-.539m.235-3.273c-.004.004-.012.004-.012.008l-.012.023c-.047.195-.09.39-.097.59-.008.18.027.36.07.535.035.137.086.27.09.414.004.008.004.02.015.02.02 0 .016-.016.016-.024q-.001-.098-.008-.195a3 3 0 0 0-.066-.438 2 2 0 0 1-.016-.789c.008-.046.027-.093.02-.144m-1.54 3.137c-.027.007-.03.027-.035.039-.105.21-.156.433-.14.672a.7.7 0 0 0 .101.343c.004.012.008.032.028.024.011-.004.004-.024 0-.035a1.5 1.5 0 0 1-.031-.547c.007-.098.011-.2.035-.301l.043-.195m1.18.562c-.023.047-.043.094-.07.137a2.3 2.3 0 0 0-.242.402 1.4 1.4 0 0 0-.156.535c-.004.016-.012.035.007.04.02 0 .016-.02.016-.032a.8.8 0 0 1 .047-.2 4 4 0 0 1 .328-.644.5.5 0 0 0 .07-.238m1.258-1.36a.3.3 0 0 0-.035.122c-.023.172-.059.34-.04.512.024.18.044.355.134.52.004.007.004.03.023.023.016-.008 0-.024-.004-.032a2 2 0 0 1-.086-.383 3 3 0 0 1 0-.605c.008-.047.02-.094.008-.156m.219-3.648c0 .035-.004.059 0 .086a.7.7 0 0 1-.02.313c-.043.172-.093.34-.14.511-.004.016-.028.04-.004.047.02.008.02-.023.027-.039.027-.05.047-.105.074-.156.11-.223.121-.46.098-.703-.004-.02-.008-.04-.035-.059m1.617 5.82c-.02.036-.035.06-.047.087a1.8 1.8 0 0 1-.168.343c-.043.063-.078.125-.129.18-.004.004-.015.012-.008.023.012.008.02.004.028-.003q.01-.005.02-.016.2-.201.288-.465c.016-.043.04-.09.016-.148m-1.844-2.703c.047-.03.059-.07.082-.097a1.6 1.6 0 0 0 .192-.332c.008-.016.02-.035 0-.059-.102.156-.211.301-.274.488m-.832.125v.07q-.001.02.016.028c.02 0 .023-.015.023-.027 0-.031.004-.067 0-.102-.004-.02 0-.058-.023-.054-.027.003-.008.039-.016.058zm-2.136 2.989a.64.64 0 0 0 .324.418q.086.054.168.113c.14.098.277.203.426.29.011.003.027.019.035.003.011-.016-.008-.023-.016-.027a4 4 0 0 1-.375-.325 2.2 2.2 0 0 1-.39-.496 1.6 1.6 0 0 1-.165-.636q-.006-.087-.02-.172c0-.012-.003-.024-.015-.024-.015 0-.02.012-.02.024v.031q.019.13.02.266c-.004.09 0 .18 0 .273-.023.09.004.176.028.262m.902-3.84c-.004-.016-.004-.035-.024-.035-.02.004-.015.02-.015.035 0 .172-.05.336-.094.496-.035.137-.117.25-.176.375-.047.102-.086.21-.164.3-.078.087-.14.188-.226.27-.012.012-.028.02-.016.04.012.023.031.011.047.003a.33.33 0 0 0 .148-.101c.051-.063.106-.117.16-.176a.8.8 0 0 0 .114-.145c.172-.293.23-.613.246-.945zm1.027 4.828c-.097-.059-.148-.152-.199-.246a1 1 0 0 1-.129-.441 2.3 2.3 0 0 1 .09-.653c.004-.02.012-.043-.008-.05-.023-.008-.027.015-.035.03-.043.079-.066.165-.094.25-.058.18-.105.36-.07.551a.8.8 0 0 0 .312.52.22.22 0 0 0 .141.055c-.004-.012-.004-.016-.008-.016m1.672-7.367a.76.76 0 0 0-.168-.352c-.008-.011-.012-.031-.035-.02-.02.009-.008.028 0 .04.027.058.055.12.07.183.043.16.055.317.051.48 0 .11.004.22-.02.329-.007.04-.019.074-.03.113 0 .012-.012.028.003.035.02.008.024-.011.031-.023l.008-.012a1.3 1.3 0 0 0 .09-.773m-.14 6.168a1 1 0 0 1-.083-.067.96.96 0 0 1-.296-.386c-.032-.067-.059-.137-.102-.2-.008-.011-.016-.027-.031-.02-.012.009-.008.024-.004.036.039.066.043.145.066.215.043.129.098.25.215.328.074.047.156.074.223.129.008.008.011.012.02.004l.011-.016zm1.18-1.692c0 .04-.005.082.007.121.008.02.02.036.035.036.02 0 .02-.02.024-.036a.3.3 0 0 0 .011-.136 2 2 0 0 1-.008-.36c0-.015.004-.03-.015-.035-.02-.004-.02.016-.027.031a.8.8 0 0 0-.028.293zm-2.794 1.04c-.023-.004-.023.027-.027.042q-.026.07-.05.141-.027.063-.052.133c-.004.008-.008.02.004.027.012.012.02 0 .024-.008a.5.5 0 0 0 .113-.289c-.004-.011.012-.043-.012-.047m0 0"/></g><g clip-path="url(#d)"><path fill="#f94616" d="M11.723 14.312q.89.002 1.735-.265.842-.281 1.234-.532l.39-.265 1.673 3.328a5 5 0 0 1-.235.172c-.093.062-.32.187-.672.375a9 9 0 0 1-1.14.5c-.399.137-.922.254-1.578.36q-.973.17-2.016.171-2.391 0-4.547-1.172a9.46 9.46 0 0 1-3.453-3.234 8.2 8.2 0 0 1-1.297-4.453q-.001-1.811.766-3.469a8.9 8.9 0 0 1 2.047-2.86 9.9 9.9 0 0 1 2.984-1.89 9 9 0 0 1 3.5-.719q1.669.001 3.063.406c.937.262 1.601.524 2 .782l.578.39-1.672 3.328a3 3 0 0 0-.438-.296q-.282-.171-1.156-.454a5.6 5.6 0 0 0-1.766-.296q-1.422 0-2.546.453-1.125.455-1.782 1.203a5.5 5.5 0 0 0-1 1.625 4.7 4.7 0 0 0-.343 1.75q-.001 1.957 1.468 3.515 1.467 1.547 4.203 1.547m0 0"/></g><path fill="#fff" d="M20.972 10.953v6.89h-3.906V.673h3.906v6.843h5.547V.672h3.906v17.172H26.52v-6.891Zm0 0"/><path fill="#f94616" d="M41.565.672v3.437h-5.922v3.406h5.672v3.438h-5.672v3.453h5.922v3.438h-9.828V.672Zm0 0"/><path fill="#fff" d="M41.541 4.11V.671h12.063v3.437h-4.078v13.735h-3.907V4.109Zm0 0"/><path fill="orange" d="M20.825 26.42v-2.016c0-.382-.289-.578-.859-.578-.574 0-.86.196-.86.578v2.016h-.577v-2.016c0-.77.476-1.156 1.437-1.156q1.437.001 1.438 1.156v2.016Zm1.157-4.328q1.296.001 1.297 1.156v3.172H22.7v-3.172q-.002-.576-.718-.578h-3.453v-.578Zm6.823 2.516-.25-.047q-2.049-.31-2.047-1.313-.002-1.155 1.438-1.156 1.436.001 1.437 1.016v.14q0 .439-.422.438h-.437v-.578h.281c0-.29-.29-.438-.86-.438q-.86.002-.859.578 0 .504 1.563.75l.734.11v2.312h-.578l-.86-.828-.859.828h-.578v-1.734h.578v.937l.86-.828.859.828Zm-1.145-3.094v-1.735h.563v1.735Zm5.533 2.016v2.062l.86-.89.859.89v-2.063h.578v2.891h-.578l-.86-.89-.86.89h-.577v-2.89Zm2.187-.86q-.234.439-.89.438h-1.875v-1.016h.578v.437h1.297q.421.001.422-.437v-.281h.578v.28h.578q1.296.002 1.297 1.157v3.172h-.578v-3.172c0-.383-.243-.578-.72-.578Zm6.074-.578v-.438h.578v1.016h-.625c.32.48.484 1.344.484 2.594q0 .564-.281.86t-.563.296q-.251 0-.484-.234c-.18-.164-.266-.336-.266-.516q-.001-.515.25-.766l.203-.25.438.313-.172.281q-.127.234-.125.375 0 .08.047.125.06.064.11.063.075 0 .14-.094.124-.154.125-.453 0-2.592-.984-2.594h-.032v-.578Zm0 0"/><g fill="orange"><path d="M45.116 20.514h.578v.719q.422 0 .422-.72h.578c0 .868-.336 1.298-1 1.298h-.578Zm0 2.734q-.002-1.155 1.437-1.156v.578q-.86.002-.859.578v2.016q-.001.3.11.453.075.094.14.094.061 0 .11-.063a.17.17 0 0 0 .046-.125q-.001-.141-.125-.375l-.172-.281.454-.313.187.25c.164.168.25.422.25.766 0 .18-.086.352-.25.516q-.253.234-.5.234-.281 0-.562-.297-.268-.294-.266-.86Zm2.161-1.156h.578v5.484q-.002.282.5.282.499 0 .5-.282v-.297h-.14v-.578h.718v.875c0 .57-.359.86-1.078.86s-1.078-.29-1.078-.86Zm0 0"/><path d="m49.296 25.592.86-.89.859.89v-2.344h.578v3.172h-.578l-.86-.89-.859.89h-.578v-2.187q0-.341.234-.641-.39-.17-.39-.703v-.797h.64q.154 0 .453.078.312.064.782.063c.382 0 .578-.094.578-.282v-.14h.578v.14q-.001.861-1.156.86-.331.002-.625-.032a3.4 3.4 0 0 1-.5-.109h-.172v.219q-.001.22.297.265l.28.063v.344q-.42.268-.421.672Zm0 0"/></g><path fill="orange" d="M54.824 22.67v-.578H57.7v.578Zm2.297 3.75v-2.016c0-.382-.289-.578-.86-.578-.573 0-.858.196-.858.578v2.016h-.579v-2.016q-.002-1.155 1.438-1.156 1.436.001 1.437 1.156v2.016Zm6.685 0h-.578v-3.687l-.594.593h-.531l-.594-.593v.515q-.001.315.719.344v.578h-.031q-.69.002-.688 1.094-.001.3.11.453.075.094.14.094.061 0 .11-.063a.17.17 0 0 0 .046-.125q-.001-.141-.125-.375l-.171-.281.453-.313.187.25q.248.251.25.766-.002.27-.25.516-.253.234-.5.234-.281 0-.562-.297-.268-.294-.266-.86 0-.95.39-1.296-.39-.186-.39-.719v-1.156h.734l.704.687.703-.687h.734Zm-2.598-5.328q.001-.293.266-.516.253-.217.781-.218.423.001.828.218.41.223.719.516v.422h-2.156q-.436 0-.438-.422m1-.297q-.218 0-.312.078c-.07.043-.11.117-.11.219h1.344a1.3 1.3 0 0 0-.453-.219 1.6 1.6 0 0 0-.469-.078m4.83 1.875v-.578h2.875v.578Zm0 1.734c0-.77.476-1.156 1.437-1.156q1.437.001 1.438 1.156v2.016h-.579v-2.016c0-.382-.289-.578-.859-.578-.574 0-.86.196-.86.578v.016l.641.625q.248.253.25.5 0 .284-.28.578-.299.299-.58.297-.251 0-.5-.234-.267-.246-.265-.516-.002-.247.266-.5l.094-.11.406.407-.094.094q-.047.063-.047.11 0 .046.047.093.03.047.094.047c.039 0 .094-.032.156-.094.063-.063.094-.117.094-.172q0-.045-.047-.078l-.812-.813Zm8.982 2.016h-.579v-3.687l-.594.593h-.531l-.594-.593v.515q0 .315.719.344v.578h-.031q-.69.002-.688 1.094-.001.3.11.453.075.094.14.094.061 0 .11-.063a.17.17 0 0 0 .047-.125q-.001-.141-.125-.375l-.172-.281.453-.313.187.25c.164.168.25.422.25.766 0 .18-.086.352-.25.516q-.253.234-.5.234-.281 0-.562-.297-.268-.294-.266-.86 0-.95.39-1.296-.39-.186-.39-.719v-1.156h.735l.703.687.703-.687h.734Zm3.23-3.75v-.578h2.876v.578Zm.579 3.656v.094h-.578v-2.016c0-.77.476-1.156 1.437-1.156q1.437.001 1.438 1.156v2.016h-.578v-2.016c0-.382-.29-.578-.86-.578-.574 0-.86.196-.86.578v1l.548-.718.453.36Zm2.293.375v1.735h-.578V26.7Zm5.532-2.093-.25-.047q-2.049-.31-2.047-1.313-.002-1.155 1.438-1.156 1.436.001 1.437 1.016v.14q0 .439-.422.438h-.437v-.578h.281q-.002-.436-.86-.438-.86.002-.859.578 0 .504 1.563.75l.734.11v2.312h-.578l-.86-.828-.859.828h-.578v-1.734h.578v.937l.86-.828.86.828Zm0 0"/></svg>