<svg xmlns="http://www.w3.org/2000/svg" xmlns:xlink="http://www.w3.org/1999/xlink" width="140" zoomAndPan="magnify" viewBox="0 0 104.88 30.000001" height="40" preserveAspectRatio="xMidYMid meet" version="1.0"><defs><g/><clipPath id="25dea909dd"><path d="M 53.769531 8 L 59 8 L 59 17 L 53.769531 17 Z M 53.769531 8 " clip-rule="nonzero"/></clipPath><clipPath id="e1b5c7b9a1"><path d="M 58 6.769531 L 64 6.769531 L 64 18.382812 L 58 18.382812 Z M 58 6.769531 " clip-rule="nonzero"/></clipPath><clipPath id="03c803951b"><path d="M 11.300781 8.613281 L 16.378906 8.613281 L 16.378906 17.324219 L 11.300781 17.324219 Z M 11.300781 8.613281 " clip-rule="nonzero"/></clipPath><clipPath id="8e54d881f0"><path d="M 1.632812 0 L 17 0 L 17 19 L 1.632812 19 Z M 1.632812 0 " clip-rule="nonzero"/></clipPath></defs><path fill="#ffffff" d="M 64.773438 16.710938 C 64.683594 16.710938 64.59375 16.675781 64.523438 16.605469 C 64.386719 16.46875 64.386719 16.246094 64.523438 16.109375 L 68.140625 12.492188 L 64.523438 8.875 C 64.386719 8.738281 64.386719 8.515625 64.523438 8.375 C 64.664062 8.238281 64.886719 8.238281 65.023438 8.375 L 68.890625 12.242188 C 68.957031 12.308594 68.992188 12.398438 68.992188 12.492188 C 68.992188 12.585938 68.957031 12.675781 68.890625 12.742188 L 65.023438 16.605469 C 64.957031 16.675781 64.863281 16.710938 64.773438 16.710938 Z M 64.773438 16.710938 " fill-opacity="1" fill-rule="nonzero"/><g clip-path="url(#25dea909dd)"><path fill="#ffffff" d="M 57.996094 16.710938 C 57.90625 16.710938 57.816406 16.675781 57.746094 16.605469 L 53.882812 12.742188 C 53.816406 12.675781 53.777344 12.585938 53.777344 12.492188 C 53.777344 12.398438 53.816406 12.308594 53.882812 12.242188 L 57.746094 8.375 C 57.886719 8.238281 58.109375 8.238281 58.246094 8.375 C 58.382812 8.515625 58.382812 8.738281 58.246094 8.875 L 54.628906 12.492188 L 58.246094 16.109375 C 58.382812 16.246094 58.382812 16.46875 58.246094 16.605469 C 58.179688 16.675781 58.085938 16.710938 57.996094 16.710938 Z M 57.996094 16.710938 " fill-opacity="1" fill-rule="nonzero"/></g><g clip-path="url(#e1b5c7b9a1)"><path fill="#ffffff" d="M 59.285156 18.167969 C 59.242188 18.167969 59.199219 18.160156 59.15625 18.144531 C 58.976562 18.070312 58.886719 17.867188 58.957031 17.683594 L 63.15625 7.039062 C 63.230469 6.859375 63.433594 6.769531 63.617188 6.839844 C 63.796875 6.910156 63.886719 7.117188 63.816406 7.296875 L 59.613281 17.945312 C 59.558594 18.082031 59.425781 18.167969 59.285156 18.167969 Z M 59.285156 18.167969 " fill-opacity="1" fill-rule="nonzero"/></g><g clip-path="url(#03c803951b)"><path fill="#f94616" d="M 13.195312 14.570312 C 13.300781 14.847656 13.203125 15.09375 13.085938 15.335938 C 12.976562 15.558594 12.863281 15.773438 12.777344 16.007812 C 12.695312 16.230469 12.652344 16.464844 12.695312 16.703125 C 12.734375 16.917969 12.84375 17.101562 13.042969 17.214844 C 13.046875 17.21875 13.054688 17.222656 13.0625 17.226562 C 13.039062 17.238281 13.03125 17.226562 13.019531 17.222656 C 12.851562 17.160156 12.691406 17.089844 12.546875 16.980469 C 12.523438 16.964844 12.503906 16.949219 12.480469 16.933594 C 12.285156 16.820312 12.121094 16.671875 11.976562 16.496094 C 11.808594 16.289062 11.664062 16.070312 11.597656 15.804688 C 11.515625 15.460938 11.507812 15.113281 11.574219 14.765625 C 11.640625 14.421875 11.796875 14.121094 11.984375 13.832031 C 12.128906 13.613281 12.285156 13.398438 12.398438 13.160156 C 12.519531 12.910156 12.558594 12.648438 12.496094 12.371094 C 12.480469 12.296875 12.460938 12.226562 12.425781 12.15625 C 12.402344 12.117188 12.410156 12.101562 12.457031 12.101562 C 12.515625 12.101562 12.566406 12.128906 12.613281 12.160156 C 12.855469 12.328125 12.964844 12.574219 13.019531 12.851562 C 13.054688 13.027344 13.054688 13.207031 13.035156 13.382812 C 13.027344 13.46875 13.019531 13.554688 13.027344 13.640625 C 13.03125 13.683594 13.046875 13.726562 13.066406 13.761719 C 13.101562 13.824219 13.160156 13.839844 13.214844 13.792969 C 13.277344 13.746094 13.308594 13.679688 13.320312 13.601562 C 13.378906 13.261719 13.296875 12.9375 13.226562 12.613281 C 13.167969 12.359375 13.136719 12.105469 13.136719 11.847656 C 13.132812 11.496094 13.265625 11.191406 13.453125 10.902344 C 13.511719 10.820312 13.570312 10.738281 13.632812 10.660156 C 13.746094 10.511719 13.847656 10.359375 13.945312 10.199219 C 14.078125 9.980469 14.132812 9.742188 14.101562 9.484375 C 14.078125 9.324219 14.042969 9.171875 13.960938 9.035156 C 13.875 8.890625 13.75 8.785156 13.585938 8.734375 C 13.550781 8.722656 13.5 8.71875 13.507812 8.671875 C 13.519531 8.625 13.570312 8.640625 13.601562 8.640625 C 13.804688 8.664062 13.976562 8.75 14.128906 8.882812 C 14.207031 8.953125 14.277344 9.027344 14.335938 9.113281 C 14.46875 9.296875 14.582031 9.488281 14.644531 9.707031 C 14.695312 9.898438 14.707031 10.09375 14.691406 10.292969 C 14.667969 10.667969 14.558594 11.023438 14.457031 11.382812 C 14.421875 11.503906 14.386719 11.628906 14.382812 11.757812 C 14.378906 11.855469 14.386719 11.953125 14.433594 12.042969 C 14.488281 12.140625 14.578125 12.179688 14.683594 12.179688 C 14.785156 12.179688 14.835938 12.113281 14.875 12.035156 C 14.941406 11.890625 15.003906 11.746094 14.996094 11.582031 C 14.988281 11.484375 14.972656 11.390625 14.945312 11.296875 C 14.941406 11.285156 14.929688 11.273438 14.941406 11.261719 C 14.953125 11.253906 14.964844 11.257812 14.976562 11.265625 C 15.066406 11.300781 15.125 11.371094 15.171875 11.449219 C 15.359375 11.753906 15.40625 12.089844 15.402344 12.4375 C 15.390625 12.949219 15.265625 13.441406 15.109375 13.921875 C 15.039062 14.132812 14.964844 14.34375 14.914062 14.5625 C 14.894531 14.664062 14.882812 14.765625 14.917969 14.867188 C 14.941406 14.933594 14.984375 14.972656 15.046875 15 C 15.078125 15.015625 15.109375 15.011719 15.136719 14.996094 C 15.191406 14.972656 15.226562 14.929688 15.257812 14.878906 C 15.339844 14.730469 15.382812 14.5625 15.414062 14.394531 C 15.460938 14.160156 15.492188 13.921875 15.488281 13.679688 C 15.484375 13.558594 15.484375 13.4375 15.480469 13.320312 C 15.480469 13.300781 15.472656 13.273438 15.496094 13.261719 C 15.523438 13.253906 15.542969 13.269531 15.558594 13.289062 C 15.625 13.363281 15.671875 13.449219 15.703125 13.539062 C 15.777344 13.757812 15.8125 13.984375 15.816406 14.214844 C 15.820312 14.457031 15.78125 14.695312 15.710938 14.925781 C 15.675781 15.046875 15.65625 15.167969 15.65625 15.292969 C 15.65625 15.347656 15.667969 15.394531 15.707031 15.433594 C 15.769531 15.496094 15.847656 15.496094 15.90625 15.429688 C 15.96875 15.355469 15.988281 15.265625 16.011719 15.175781 C 16.050781 15.007812 16.027344 14.84375 15.960938 14.683594 C 15.957031 14.671875 15.949219 14.660156 15.949219 14.648438 C 15.945312 14.636719 15.949219 14.625 15.957031 14.613281 C 15.972656 14.601562 15.984375 14.613281 15.992188 14.617188 C 16.035156 14.640625 16.066406 14.679688 16.089844 14.714844 C 16.144531 14.796875 16.207031 14.875 16.25 14.964844 C 16.359375 15.183594 16.378906 15.417969 16.34375 15.65625 C 16.269531 16.113281 16.042969 16.476562 15.671875 16.753906 C 15.382812 16.972656 15.066406 17.140625 14.730469 17.269531 C 14.695312 17.28125 14.65625 17.289062 14.617188 17.300781 C 14.605469 17.300781 14.585938 17.3125 14.582031 17.292969 C 14.574219 17.273438 14.59375 17.277344 14.605469 17.269531 C 14.78125 17.171875 14.949219 17.0625 15.101562 16.933594 C 15.3125 16.753906 15.464844 16.535156 15.515625 16.257812 C 15.539062 16.132812 15.523438 16.007812 15.480469 15.886719 C 15.429688 15.746094 15.375 15.609375 15.285156 15.488281 C 15.28125 15.484375 15.28125 15.480469 15.277344 15.480469 C 15.257812 15.460938 15.246094 15.425781 15.214844 15.441406 C 15.199219 15.449219 15.21875 15.480469 15.222656 15.503906 C 15.242188 15.574219 15.265625 15.640625 15.273438 15.710938 C 15.292969 15.835938 15.230469 15.921875 15.132812 15.984375 C 15.058594 16.027344 14.976562 16.015625 14.898438 15.964844 C 14.796875 15.902344 14.714844 15.8125 14.648438 15.714844 C 14.453125 15.441406 14.304688 15.140625 14.21875 14.816406 C 14.117188 14.421875 14.113281 14.027344 14.210938 13.628906 C 14.238281 13.515625 14.273438 13.40625 14.308594 13.296875 C 14.3125 13.285156 14.316406 13.273438 14.320312 13.261719 C 14.324219 13.246094 14.320312 13.226562 14.304688 13.21875 C 14.289062 13.207031 14.273438 13.210938 14.257812 13.226562 C 14.242188 13.242188 14.222656 13.261719 14.207031 13.28125 C 14.019531 13.542969 13.875 13.824219 13.8125 14.140625 C 13.789062 14.269531 13.792969 14.398438 13.808594 14.527344 C 13.820312 14.617188 13.832031 14.703125 13.851562 14.792969 C 13.867188 14.882812 13.894531 14.972656 13.917969 15.0625 C 13.949219 15.179688 13.945312 15.296875 13.910156 15.414062 C 13.886719 15.492188 13.851562 15.558594 13.757812 15.570312 C 13.664062 15.585938 13.59375 15.539062 13.546875 15.464844 C 13.476562 15.359375 13.445312 15.238281 13.46875 15.109375 C 13.503906 14.90625 13.386719 14.667969 13.195312 14.570312 Z M 13.429688 11.296875 C 13.425781 11.300781 13.417969 11.300781 13.417969 11.304688 C 13.414062 11.3125 13.410156 11.320312 13.40625 11.328125 C 13.359375 11.523438 13.316406 11.71875 13.308594 11.917969 C 13.300781 12.097656 13.335938 12.277344 13.378906 12.453125 C 13.414062 12.589844 13.464844 12.722656 13.46875 12.867188 C 13.472656 12.875 13.472656 12.886719 13.484375 12.886719 C 13.503906 12.886719 13.5 12.871094 13.5 12.863281 C 13.5 12.796875 13.496094 12.734375 13.492188 12.667969 C 13.484375 12.519531 13.457031 12.375 13.425781 12.230469 C 13.367188 11.96875 13.363281 11.707031 13.410156 11.441406 C 13.417969 11.394531 13.4375 11.347656 13.429688 11.296875 Z M 11.890625 14.433594 C 11.863281 14.441406 11.859375 14.460938 11.855469 14.472656 C 11.75 14.683594 11.699219 14.90625 11.714844 15.144531 C 11.722656 15.269531 11.75 15.382812 11.816406 15.488281 C 11.820312 15.5 11.824219 15.519531 11.84375 15.511719 C 11.855469 15.507812 11.847656 15.488281 11.84375 15.476562 C 11.816406 15.371094 11.804688 15.265625 11.800781 15.15625 C 11.800781 15.082031 11.804688 15.003906 11.8125 14.929688 C 11.820312 14.832031 11.824219 14.730469 11.847656 14.628906 C 11.863281 14.566406 11.875 14.5 11.890625 14.433594 Z M 13.070312 14.996094 C 13.046875 15.042969 13.027344 15.089844 13 15.132812 C 12.910156 15.261719 12.820312 15.390625 12.757812 15.535156 C 12.675781 15.707031 12.609375 15.878906 12.601562 16.070312 C 12.597656 16.085938 12.589844 16.105469 12.609375 16.109375 C 12.628906 16.109375 12.625 16.089844 12.625 16.078125 C 12.632812 16.007812 12.648438 15.941406 12.671875 15.878906 C 12.757812 15.652344 12.875 15.441406 13 15.234375 C 13.042969 15.160156 13.066406 15.082031 13.070312 14.996094 Z M 14.328125 13.636719 C 14.300781 13.683594 14.296875 13.71875 14.292969 13.757812 C 14.269531 13.929688 14.234375 14.097656 14.253906 14.269531 C 14.277344 14.449219 14.296875 14.625 14.386719 14.789062 C 14.390625 14.796875 14.390625 14.820312 14.410156 14.8125 C 14.425781 14.804688 14.410156 14.789062 14.40625 14.78125 C 14.363281 14.65625 14.335938 14.527344 14.320312 14.398438 C 14.300781 14.195312 14.296875 13.992188 14.320312 13.792969 C 14.328125 13.746094 14.339844 13.699219 14.328125 13.636719 Z M 14.546875 9.988281 C 14.546875 10.023438 14.542969 10.046875 14.546875 10.074219 C 14.566406 10.179688 14.554688 10.285156 14.527344 10.386719 C 14.484375 10.558594 14.433594 10.726562 14.386719 10.898438 C 14.382812 10.914062 14.359375 10.9375 14.382812 10.945312 C 14.402344 10.953125 14.402344 10.921875 14.410156 10.90625 C 14.4375 10.855469 14.457031 10.800781 14.484375 10.75 C 14.59375 10.527344 14.605469 10.289062 14.582031 10.046875 C 14.578125 10.027344 14.574219 10.007812 14.546875 9.988281 Z M 16.164062 15.808594 C 16.144531 15.84375 16.128906 15.867188 16.117188 15.894531 C 16.070312 16.015625 16.019531 16.132812 15.949219 16.238281 C 15.90625 16.300781 15.871094 16.363281 15.820312 16.417969 C 15.816406 16.421875 15.804688 16.429688 15.8125 16.441406 C 15.824219 16.449219 15.832031 16.445312 15.839844 16.4375 C 15.847656 16.433594 15.851562 16.429688 15.859375 16.421875 C 15.992188 16.289062 16.089844 16.132812 16.148438 15.957031 C 16.164062 15.914062 16.1875 15.867188 16.164062 15.808594 Z M 14.320312 13.105469 C 14.367188 13.074219 14.378906 13.035156 14.402344 13.007812 C 14.476562 12.902344 14.546875 12.796875 14.59375 12.675781 C 14.601562 12.660156 14.613281 12.640625 14.59375 12.617188 C 14.492188 12.773438 14.382812 12.917969 14.320312 13.105469 Z M 13.488281 13.230469 C 13.488281 13.253906 13.488281 13.277344 13.488281 13.300781 C 13.488281 13.3125 13.492188 13.324219 13.503906 13.328125 C 13.523438 13.328125 13.527344 13.3125 13.527344 13.300781 C 13.527344 13.269531 13.53125 13.234375 13.527344 13.199219 C 13.523438 13.179688 13.527344 13.140625 13.503906 13.144531 C 13.476562 13.148438 13.496094 13.183594 13.488281 13.203125 C 13.488281 13.210938 13.488281 13.222656 13.488281 13.230469 Z M 11.351562 16.21875 C 11.398438 16.40625 11.507812 16.542969 11.675781 16.636719 C 11.734375 16.671875 11.789062 16.710938 11.84375 16.75 C 11.984375 16.847656 12.121094 16.953125 12.269531 17.039062 C 12.28125 17.042969 12.296875 17.058594 12.304688 17.042969 C 12.316406 17.027344 12.296875 17.019531 12.289062 17.015625 C 12.15625 16.914062 12.03125 16.808594 11.914062 16.691406 C 11.765625 16.542969 11.625 16.382812 11.523438 16.195312 C 11.417969 15.996094 11.378906 15.78125 11.359375 15.558594 C 11.355469 15.5 11.347656 15.445312 11.339844 15.386719 C 11.339844 15.375 11.335938 15.363281 11.324219 15.363281 C 11.308594 15.363281 11.304688 15.375 11.304688 15.386719 C 11.304688 15.398438 11.304688 15.40625 11.304688 15.417969 C 11.316406 15.503906 11.324219 15.59375 11.324219 15.683594 C 11.320312 15.773438 11.324219 15.863281 11.324219 15.957031 C 11.300781 16.046875 11.328125 16.132812 11.351562 16.21875 Z M 12.253906 12.378906 C 12.25 12.363281 12.25 12.34375 12.230469 12.34375 C 12.210938 12.347656 12.214844 12.363281 12.214844 12.378906 C 12.214844 12.550781 12.164062 12.714844 12.121094 12.875 C 12.085938 13.011719 12.003906 13.125 11.945312 13.25 C 11.898438 13.351562 11.859375 13.460938 11.78125 13.550781 C 11.703125 13.636719 11.640625 13.738281 11.554688 13.820312 C 11.542969 13.832031 11.527344 13.839844 11.539062 13.859375 C 11.550781 13.882812 11.570312 13.871094 11.585938 13.863281 C 11.644531 13.84375 11.695312 13.808594 11.734375 13.761719 C 11.785156 13.699219 11.839844 13.644531 11.894531 13.585938 C 11.9375 13.542969 11.976562 13.492188 12.007812 13.441406 C 12.179688 13.148438 12.238281 12.828125 12.253906 12.496094 C 12.253906 12.457031 12.253906 12.417969 12.253906 12.378906 Z M 13.28125 17.207031 C 13.183594 17.148438 13.132812 17.054688 13.082031 16.960938 C 13.003906 16.824219 12.960938 16.675781 12.953125 16.519531 C 12.945312 16.296875 12.988281 16.082031 13.042969 15.867188 C 13.046875 15.847656 13.054688 15.824219 13.035156 15.816406 C 13.011719 15.808594 13.007812 15.832031 13 15.847656 C 12.957031 15.925781 12.933594 16.011719 12.90625 16.097656 C 12.847656 16.277344 12.800781 16.457031 12.835938 16.648438 C 12.875 16.859375 12.96875 17.039062 13.148438 17.167969 C 13.1875 17.199219 13.230469 17.222656 13.289062 17.222656 C 13.285156 17.210938 13.285156 17.207031 13.28125 17.207031 Z M 14.953125 9.839844 C 14.929688 9.707031 14.871094 9.59375 14.785156 9.488281 C 14.777344 9.476562 14.773438 9.457031 14.75 9.46875 C 14.730469 9.476562 14.742188 9.496094 14.75 9.507812 C 14.777344 9.566406 14.804688 9.628906 14.820312 9.691406 C 14.863281 9.851562 14.875 10.007812 14.871094 10.171875 C 14.871094 10.28125 14.875 10.390625 14.851562 10.5 C 14.84375 10.539062 14.832031 10.574219 14.820312 10.613281 C 14.820312 10.625 14.808594 10.640625 14.824219 10.648438 C 14.84375 10.65625 14.847656 10.636719 14.855469 10.625 C 14.859375 10.621094 14.859375 10.617188 14.863281 10.613281 C 14.929688 10.449219 14.980469 10.28125 14.976562 10.101562 C 14.980469 10.015625 14.96875 9.925781 14.953125 9.839844 Z M 14.8125 16.007812 C 14.785156 15.988281 14.757812 15.964844 14.730469 15.941406 C 14.59375 15.839844 14.503906 15.707031 14.433594 15.554688 C 14.402344 15.488281 14.375 15.417969 14.332031 15.355469 C 14.324219 15.34375 14.316406 15.328125 14.300781 15.335938 C 14.289062 15.34375 14.292969 15.359375 14.296875 15.371094 C 14.335938 15.4375 14.339844 15.515625 14.363281 15.585938 C 14.40625 15.714844 14.460938 15.835938 14.578125 15.914062 C 14.652344 15.960938 14.734375 15.988281 14.800781 16.042969 C 14.808594 16.050781 14.8125 16.054688 14.820312 16.046875 C 14.824219 16.042969 14.828125 16.039062 14.832031 16.03125 C 14.824219 16.023438 14.820312 16.015625 14.8125 16.007812 Z M 15.992188 14.316406 C 15.992188 14.355469 15.988281 14.398438 16 14.4375 C 16.007812 14.457031 16.019531 14.472656 16.035156 14.472656 C 16.054688 14.472656 16.054688 14.453125 16.058594 14.4375 C 16.070312 14.394531 16.078125 14.347656 16.070312 14.300781 C 16.054688 14.183594 16.054688 14.0625 16.0625 13.941406 C 16.0625 13.925781 16.066406 13.910156 16.046875 13.90625 C 16.027344 13.902344 16.027344 13.921875 16.019531 13.9375 C 15.988281 14.03125 15.988281 14.132812 15.992188 14.230469 C 15.992188 14.257812 15.992188 14.285156 15.992188 14.316406 Z M 13.199219 15.355469 C 13.175781 15.351562 13.175781 15.382812 13.171875 15.398438 C 13.15625 15.445312 13.136719 15.492188 13.121094 15.539062 C 13.105469 15.582031 13.085938 15.625 13.070312 15.671875 C 13.066406 15.679688 13.0625 15.691406 13.074219 15.699219 C 13.085938 15.710938 13.09375 15.699219 13.097656 15.691406 C 13.160156 15.609375 13.207031 15.515625 13.210938 15.402344 C 13.207031 15.390625 13.222656 15.359375 13.199219 15.355469 Z M 13.199219 15.355469 " fill-opacity="1" fill-rule="nonzero"/></g><g clip-path="url(#8e54d881f0)"><g fill="#f94616" fill-opacity="1"><g transform="translate(1.332822, 17.843594)"><g><path d="M 10.390625 -3.53125 C 10.984375 -3.53125 11.5625 -3.617188 12.125 -3.796875 C 12.6875 -3.984375 13.097656 -4.160156 13.359375 -4.328125 L 13.75 -4.59375 L 15.421875 -1.265625 C 15.367188 -1.222656 15.289062 -1.164062 15.1875 -1.09375 C 15.09375 -1.03125 14.867188 -0.90625 14.515625 -0.71875 C 14.160156 -0.53125 13.78125 -0.363281 13.375 -0.21875 C 12.976562 -0.0820312 12.453125 0.0351562 11.796875 0.140625 C 11.148438 0.253906 10.476562 0.3125 9.78125 0.3125 C 8.1875 0.3125 6.671875 -0.078125 5.234375 -0.859375 C 3.804688 -1.648438 2.65625 -2.726562 1.78125 -4.09375 C 0.914062 -5.46875 0.484375 -6.953125 0.484375 -8.546875 C 0.484375 -9.753906 0.738281 -10.910156 1.25 -12.015625 C 1.757812 -13.128906 2.441406 -14.082031 3.296875 -14.875 C 4.148438 -15.664062 5.144531 -16.296875 6.28125 -16.765625 C 7.414062 -17.242188 8.582031 -17.484375 9.78125 -17.484375 C 10.894531 -17.484375 11.914062 -17.347656 12.84375 -17.078125 C 13.78125 -16.816406 14.445312 -16.554688 14.84375 -16.296875 L 15.421875 -15.90625 L 13.75 -12.578125 C 13.65625 -12.660156 13.507812 -12.757812 13.3125 -12.875 C 13.125 -12.988281 12.738281 -13.140625 12.15625 -13.328125 C 11.570312 -13.523438 10.984375 -13.625 10.390625 -13.625 C 9.441406 -13.625 8.59375 -13.472656 7.84375 -13.171875 C 7.09375 -12.867188 6.5 -12.46875 6.0625 -11.96875 C 5.625 -11.46875 5.289062 -10.925781 5.0625 -10.34375 C 4.832031 -9.769531 4.71875 -9.1875 4.71875 -8.59375 C 4.71875 -7.289062 5.207031 -6.117188 6.1875 -5.078125 C 7.164062 -4.046875 8.566406 -3.53125 10.390625 -3.53125 Z M 10.390625 -3.53125 "/></g></g></g></g><g fill="#ffffff" fill-opacity="1"><g transform="translate(15.815974, 17.843594)"><g><path d="M 5.15625 -6.890625 L 5.15625 0 L 1.25 0 L 1.25 -17.171875 L 5.15625 -17.171875 L 5.15625 -10.328125 L 10.703125 -10.328125 L 10.703125 -17.171875 L 14.609375 -17.171875 L 14.609375 0 L 10.703125 0 L 10.703125 -6.890625 Z M 5.15625 -6.890625 "/></g></g></g><g fill="#f94616" fill-opacity="1"><g transform="translate(30.486959, 17.843594)"><g><path d="M 11.078125 -17.171875 L 11.078125 -13.734375 L 5.15625 -13.734375 L 5.15625 -10.328125 L 10.828125 -10.328125 L 10.828125 -6.890625 L 5.15625 -6.890625 L 5.15625 -3.4375 L 11.078125 -3.4375 L 11.078125 0 L 1.25 0 L 1.25 -17.171875 Z M 11.078125 -17.171875 "/></g></g></g><g fill="#ffffff" fill-opacity="1"><g transform="translate(41.369306, 17.843594)"><g><path d="M 0.171875 -13.734375 L 0.171875 -17.171875 L 12.234375 -17.171875 L 12.234375 -13.734375 L 8.15625 -13.734375 L 8.15625 0 L 4.25 0 L 4.25 -13.734375 Z M 0.171875 -13.734375 "/></g></g></g><g fill="#ffa500" fill-opacity="1"><g transform="translate(18.091054, 26.420063)"><g><path d="M 2.734375 0 L 2.734375 -2.015625 C 2.734375 -2.398438 2.445312 -2.59375 1.875 -2.59375 C 1.300781 -2.59375 1.015625 -2.398438 1.015625 -2.015625 L 1.015625 0 L 0.4375 0 L 0.4375 -2.015625 C 0.4375 -2.785156 0.914062 -3.171875 1.875 -3.171875 C 2.832031 -3.171875 3.3125 -2.785156 3.3125 -2.015625 L 3.3125 0 Z M 3.890625 -4.328125 C 4.753906 -4.328125 5.1875 -3.941406 5.1875 -3.171875 L 5.1875 0 L 4.609375 0 L 4.609375 -3.171875 C 4.609375 -3.554688 4.367188 -3.75 3.890625 -3.75 L 0.4375 -3.75 L 0.4375 -4.328125 Z M 3.890625 -4.328125 "/></g></g></g><g fill="#ffa500" fill-opacity="1"><g transform="translate(26.070616, 26.420063)"><g><path d="M 2.734375 -1.8125 L 2.484375 -1.859375 C 1.117188 -2.066406 0.4375 -2.503906 0.4375 -3.171875 C 0.4375 -3.941406 0.914062 -4.328125 1.875 -4.328125 C 2.832031 -4.328125 3.3125 -3.988281 3.3125 -3.3125 L 3.3125 -3.171875 C 3.3125 -2.878906 3.171875 -2.734375 2.890625 -2.734375 L 2.453125 -2.734375 L 2.453125 -3.3125 L 2.734375 -3.3125 C 2.734375 -3.601562 2.445312 -3.75 1.875 -3.75 C 1.300781 -3.75 1.015625 -3.554688 1.015625 -3.171875 C 1.015625 -2.835938 1.535156 -2.585938 2.578125 -2.421875 L 3.3125 -2.3125 L 3.3125 0 L 2.734375 0 L 1.875 -0.828125 L 1.015625 0 L 0.4375 0 L 0.4375 -1.734375 L 1.015625 -1.734375 L 1.015625 -0.796875 L 1.875 -1.625 L 2.734375 -0.796875 Z M 2.734375 -1.8125 "/></g></g><g transform="translate(29.816619, 26.420063)"><g><path d="M -2.15625 -4.90625 L -2.15625 -6.640625 L -1.59375 -6.640625 L -1.59375 -4.90625 Z M -2.15625 -4.90625 "/></g></g></g><g fill="#ffa500" fill-opacity="1"><g transform="translate(32.177176, 26.420063)"><g><path d="M 1.015625 -2.890625 L 1.015625 -0.828125 L 1.875 -1.71875 L 2.734375 -0.828125 L 2.734375 -2.890625 L 3.3125 -2.890625 L 3.3125 0 L 2.734375 0 L 1.875 -0.890625 L 1.015625 0 L 0.4375 0 L 0.4375 -2.890625 Z M 3.203125 -3.75 C 3.046875 -3.457031 2.75 -3.3125 2.3125 -3.3125 L 0.4375 -3.3125 L 0.4375 -4.328125 L 1.015625 -4.328125 L 1.015625 -3.890625 L 2.3125 -3.890625 C 2.59375 -3.890625 2.734375 -4.035156 2.734375 -4.328125 L 2.734375 -4.609375 L 3.3125 -4.609375 L 3.3125 -4.328125 L 3.890625 -4.328125 C 4.753906 -4.328125 5.1875 -3.941406 5.1875 -3.171875 L 5.1875 0 L 4.609375 0 L 4.609375 -3.171875 C 4.609375 -3.554688 4.367188 -3.75 3.890625 -3.75 Z M 3.203125 -3.75 "/></g></g></g><g fill="#ffa500" fill-opacity="1"><g transform="translate(40.156738, 26.420063)"><g><path d="M 1.296875 -4.328125 L 1.296875 -4.765625 L 1.875 -4.765625 L 1.875 -3.75 L 1.25 -3.75 C 1.570312 -3.269531 1.734375 -2.40625 1.734375 -1.15625 C 1.734375 -0.78125 1.640625 -0.492188 1.453125 -0.296875 C 1.265625 -0.0976562 1.078125 0 0.890625 0 C 0.722656 0 0.5625 -0.078125 0.40625 -0.234375 C 0.226562 -0.398438 0.140625 -0.570312 0.140625 -0.75 C 0.140625 -1.09375 0.222656 -1.347656 0.390625 -1.515625 L 0.59375 -1.765625 L 1.03125 -1.453125 L 0.859375 -1.171875 C 0.773438 -1.015625 0.734375 -0.890625 0.734375 -0.796875 C 0.734375 -0.742188 0.75 -0.703125 0.78125 -0.671875 C 0.820312 -0.628906 0.859375 -0.609375 0.890625 -0.609375 C 0.941406 -0.609375 0.988281 -0.640625 1.03125 -0.703125 C 1.113281 -0.804688 1.15625 -0.957031 1.15625 -1.15625 C 1.15625 -2.882812 0.828125 -3.75 0.171875 -3.75 L 0.140625 -3.75 L 0.140625 -4.328125 Z M 1.296875 -4.328125 "/></g></g></g><g fill="#ffa500" fill-opacity="1"><g transform="translate(44.678451, 26.420063)"><g><path d="M 0.4375 -5.90625 L 1.015625 -5.90625 L 1.015625 -5.1875 C 1.296875 -5.1875 1.4375 -5.425781 1.4375 -5.90625 L 2.015625 -5.90625 C 2.015625 -5.039062 1.679688 -4.609375 1.015625 -4.609375 L 0.4375 -4.609375 Z M 0.4375 -3.171875 C 0.4375 -3.941406 0.914062 -4.328125 1.875 -4.328125 L 1.875 -3.75 C 1.300781 -3.75 1.015625 -3.554688 1.015625 -3.171875 L 1.015625 -1.15625 C 1.015625 -0.957031 1.050781 -0.804688 1.125 -0.703125 C 1.175781 -0.640625 1.222656 -0.609375 1.265625 -0.609375 C 1.304688 -0.609375 1.34375 -0.628906 1.375 -0.671875 C 1.40625 -0.703125 1.421875 -0.742188 1.421875 -0.796875 C 1.421875 -0.890625 1.378906 -1.015625 1.296875 -1.171875 L 1.125 -1.453125 L 1.578125 -1.765625 L 1.765625 -1.515625 C 1.929688 -1.347656 2.015625 -1.09375 2.015625 -0.75 C 2.015625 -0.570312 1.929688 -0.398438 1.765625 -0.234375 C 1.597656 -0.078125 1.429688 0 1.265625 0 C 1.078125 0 0.890625 -0.0976562 0.703125 -0.296875 C 0.523438 -0.492188 0.4375 -0.78125 0.4375 -1.15625 Z M 0.4375 -3.171875 "/></g></g><g transform="translate(46.839607, 26.420063)"><g><path d="M 0.4375 -4.328125 L 1.015625 -4.328125 L 1.015625 1.15625 C 1.015625 1.34375 1.179688 1.4375 1.515625 1.4375 C 1.847656 1.4375 2.015625 1.34375 2.015625 1.15625 L 2.015625 0.859375 L 1.875 0.859375 L 1.875 0.28125 L 2.59375 0.28125 L 2.59375 1.15625 C 2.59375 1.726562 2.234375 2.015625 1.515625 2.015625 C 0.796875 2.015625 0.4375 1.726562 0.4375 1.15625 Z M 0.4375 -4.328125 "/></g></g><g transform="translate(48.280377, 26.420063)"><g><path d="M 1.015625 -0.828125 L 1.875 -1.71875 L 2.734375 -0.828125 L 2.734375 -3.171875 L 3.3125 -3.171875 L 3.3125 0 L 2.734375 0 L 1.875 -0.890625 L 1.015625 0 L 0.4375 0 L 0.4375 -2.1875 C 0.4375 -2.414062 0.515625 -2.628906 0.671875 -2.828125 C 0.410156 -2.941406 0.28125 -3.175781 0.28125 -3.53125 L 0.28125 -4.328125 L 0.921875 -4.328125 C 1.023438 -4.328125 1.175781 -4.300781 1.375 -4.25 C 1.582031 -4.207031 1.84375 -4.1875 2.15625 -4.1875 C 2.539062 -4.1875 2.734375 -4.28125 2.734375 -4.46875 L 2.734375 -4.609375 L 3.3125 -4.609375 L 3.3125 -4.46875 C 3.3125 -3.894531 2.925781 -3.609375 2.15625 -3.609375 C 1.9375 -3.609375 1.726562 -3.617188 1.53125 -3.640625 C 1.332031 -3.671875 1.164062 -3.707031 1.03125 -3.75 L 0.859375 -3.75 L 0.859375 -3.53125 C 0.859375 -3.382812 0.957031 -3.296875 1.15625 -3.265625 L 1.4375 -3.203125 L 1.4375 -2.859375 C 1.15625 -2.679688 1.015625 -2.457031 1.015625 -2.1875 Z M 1.015625 -0.828125 "/></g></g></g><g fill="#ffa500" fill-opacity="1"><g transform="translate(54.386939, 26.420063)"><g><path d="M 0.4375 -3.75 L 0.4375 -4.328125 L 3.3125 -4.328125 L 3.3125 -3.75 Z M 2.734375 0 L 2.734375 -2.015625 C 2.734375 -2.398438 2.445312 -2.59375 1.875 -2.59375 C 1.300781 -2.59375 1.015625 -2.398438 1.015625 -2.015625 L 1.015625 0 L 0.4375 0 L 0.4375 -2.015625 C 0.4375 -2.785156 0.914062 -3.171875 1.875 -3.171875 C 2.832031 -3.171875 3.3125 -2.785156 3.3125 -2.015625 L 3.3125 0 Z M 2.734375 0 "/></g></g></g><g fill="#ffa500" fill-opacity="1"><g transform="translate(60.493501, 26.420063)"><g><path d="M 3.3125 0 L 2.734375 0 L 2.734375 -3.6875 L 2.140625 -3.09375 L 1.609375 -3.09375 L 1.015625 -3.6875 L 1.015625 -3.171875 C 1.015625 -2.960938 1.253906 -2.847656 1.734375 -2.828125 L 1.734375 -2.25 L 1.703125 -2.25 C 1.242188 -2.25 1.015625 -1.882812 1.015625 -1.15625 C 1.015625 -0.957031 1.050781 -0.804688 1.125 -0.703125 C 1.175781 -0.640625 1.222656 -0.609375 1.265625 -0.609375 C 1.304688 -0.609375 1.34375 -0.628906 1.375 -0.671875 C 1.40625 -0.703125 1.421875 -0.742188 1.421875 -0.796875 C 1.421875 -0.890625 1.378906 -1.015625 1.296875 -1.171875 L 1.125 -1.453125 L 1.578125 -1.765625 L 1.765625 -1.515625 C 1.929688 -1.347656 2.015625 -1.09375 2.015625 -0.75 C 2.015625 -0.570312 1.929688 -0.398438 1.765625 -0.234375 C 1.597656 -0.078125 1.429688 0 1.265625 0 C 1.078125 0 0.890625 -0.0976562 0.703125 -0.296875 C 0.523438 -0.492188 0.4375 -0.78125 0.4375 -1.15625 C 0.4375 -1.789062 0.566406 -2.222656 0.828125 -2.453125 C 0.566406 -2.578125 0.4375 -2.816406 0.4375 -3.171875 L 0.4375 -4.328125 L 1.171875 -4.328125 L 1.875 -3.640625 L 2.578125 -4.328125 L 3.3125 -4.328125 Z M 3.3125 0 "/></g></g><g transform="translate(64.239504, 26.420063)"><g><path d="M -3.03125 -5.328125 C -3.03125 -5.523438 -2.941406 -5.695312 -2.765625 -5.84375 C -2.597656 -5.988281 -2.335938 -6.0625 -1.984375 -6.0625 C -1.703125 -6.0625 -1.425781 -5.988281 -1.15625 -5.84375 C -0.882812 -5.695312 -0.644531 -5.523438 -0.4375 -5.328125 L -0.4375 -4.90625 L -2.59375 -4.90625 C -2.882812 -4.90625 -3.03125 -5.046875 -3.03125 -5.328125 Z M -2.03125 -5.625 C -2.175781 -5.625 -2.28125 -5.597656 -2.34375 -5.546875 C -2.414062 -5.503906 -2.453125 -5.429688 -2.453125 -5.328125 L -1.109375 -5.328125 C -1.242188 -5.429688 -1.394531 -5.503906 -1.5625 -5.546875 C -1.726562 -5.597656 -1.882812 -5.625 -2.03125 -5.625 Z M -2.03125 -5.625 "/></g></g></g><g fill="#ffa500" fill-opacity="1"><g transform="translate(66.600063, 26.420063)"><g><path d="M 0.4375 -3.75 L 0.4375 -4.328125 L 3.3125 -4.328125 L 3.3125 -3.75 Z M 0.4375 -2.015625 C 0.4375 -2.785156 0.914062 -3.171875 1.875 -3.171875 C 2.832031 -3.171875 3.3125 -2.785156 3.3125 -2.015625 L 3.3125 0 L 2.734375 0 L 2.734375 -2.015625 C 2.734375 -2.398438 2.445312 -2.59375 1.875 -2.59375 C 1.300781 -2.59375 1.015625 -2.398438 1.015625 -2.015625 L 1.015625 -2 L 1.65625 -1.375 C 1.820312 -1.207031 1.90625 -1.039062 1.90625 -0.875 C 1.90625 -0.6875 1.8125 -0.492188 1.625 -0.296875 C 1.425781 -0.0976562 1.234375 0 1.046875 0 C 0.878906 0 0.710938 -0.078125 0.546875 -0.234375 C 0.367188 -0.398438 0.28125 -0.570312 0.28125 -0.75 C 0.28125 -0.914062 0.367188 -1.082031 0.546875 -1.25 L 0.640625 -1.359375 L 1.046875 -0.953125 L 0.953125 -0.859375 C 0.921875 -0.816406 0.90625 -0.78125 0.90625 -0.75 C 0.90625 -0.71875 0.921875 -0.6875 0.953125 -0.65625 C 0.972656 -0.625 1.003906 -0.609375 1.046875 -0.609375 C 1.085938 -0.609375 1.140625 -0.640625 1.203125 -0.703125 C 1.265625 -0.765625 1.296875 -0.820312 1.296875 -0.875 C 1.296875 -0.90625 1.28125 -0.929688 1.25 -0.953125 L 0.4375 -1.765625 Z M 0.4375 -2.015625 "/></g></g></g><g fill="#ffa500" fill-opacity="1"><g transform="translate(72.706626, 26.420063)"><g><path d="M 3.3125 0 L 2.734375 0 L 2.734375 -3.6875 L 2.140625 -3.09375 L 1.609375 -3.09375 L 1.015625 -3.6875 L 1.015625 -3.171875 C 1.015625 -2.960938 1.253906 -2.847656 1.734375 -2.828125 L 1.734375 -2.25 L 1.703125 -2.25 C 1.242188 -2.25 1.015625 -1.882812 1.015625 -1.15625 C 1.015625 -0.957031 1.050781 -0.804688 1.125 -0.703125 C 1.175781 -0.640625 1.222656 -0.609375 1.265625 -0.609375 C 1.304688 -0.609375 1.34375 -0.628906 1.375 -0.671875 C 1.40625 -0.703125 1.421875 -0.742188 1.421875 -0.796875 C 1.421875 -0.890625 1.378906 -1.015625 1.296875 -1.171875 L 1.125 -1.453125 L 1.578125 -1.765625 L 1.765625 -1.515625 C 1.929688 -1.347656 2.015625 -1.09375 2.015625 -0.75 C 2.015625 -0.570312 1.929688 -0.398438 1.765625 -0.234375 C 1.597656 -0.078125 1.429688 0 1.265625 0 C 1.078125 0 0.890625 -0.0976562 0.703125 -0.296875 C 0.523438 -0.492188 0.4375 -0.78125 0.4375 -1.15625 C 0.4375 -1.789062 0.566406 -2.222656 0.828125 -2.453125 C 0.566406 -2.578125 0.4375 -2.816406 0.4375 -3.171875 L 0.4375 -4.328125 L 1.171875 -4.328125 L 1.875 -3.640625 L 2.578125 -4.328125 L 3.3125 -4.328125 Z M 3.3125 0 "/></g></g></g><g fill="#ffa500" fill-opacity="1"><g transform="translate(78.813188, 26.420063)"><g><path d="M 0.4375 -3.75 L 0.4375 -4.328125 L 3.3125 -4.328125 L 3.3125 -3.75 Z M 1.015625 -0.09375 L 1.015625 0 L 0.4375 0 L 0.4375 -2.015625 C 0.4375 -2.785156 0.914062 -3.171875 1.875 -3.171875 C 2.832031 -3.171875 3.3125 -2.785156 3.3125 -2.015625 L 3.3125 0 L 2.734375 0 L 2.734375 -2.015625 C 2.734375 -2.398438 2.445312 -2.59375 1.875 -2.59375 C 1.300781 -2.59375 1.015625 -2.398438 1.015625 -2.015625 L 1.015625 -1.015625 L 1.5625 -1.734375 L 2.015625 -1.375 Z M 1.015625 -0.09375 "/></g></g><g transform="translate(82.559191, 26.420063)"><g><path d="M -0.4375 0.28125 L -0.4375 2.015625 L -1.015625 2.015625 L -1.015625 0.28125 Z M -0.4375 0.28125 "/></g></g></g><g fill="#ffa500" fill-opacity="1"><g transform="translate(84.91975, 26.420063)"><g><path d="M 2.734375 -1.8125 L 2.484375 -1.859375 C 1.117188 -2.066406 0.4375 -2.503906 0.4375 -3.171875 C 0.4375 -3.941406 0.914062 -4.328125 1.875 -4.328125 C 2.832031 -4.328125 3.3125 -3.988281 3.3125 -3.3125 L 3.3125 -3.171875 C 3.3125 -2.878906 3.171875 -2.734375 2.890625 -2.734375 L 2.453125 -2.734375 L 2.453125 -3.3125 L 2.734375 -3.3125 C 2.734375 -3.601562 2.445312 -3.75 1.875 -3.75 C 1.300781 -3.75 1.015625 -3.554688 1.015625 -3.171875 C 1.015625 -2.835938 1.535156 -2.585938 2.578125 -2.421875 L 3.3125 -2.3125 L 3.3125 0 L 2.734375 0 L 1.875 -0.828125 L 1.015625 0 L 0.4375 0 L 0.4375 -1.734375 L 1.015625 -1.734375 L 1.015625 -0.796875 L 1.875 -1.625 L 2.734375 -0.796875 Z M 2.734375 -1.8125 "/></g></g></g></svg>